:SAMPLES-PER-SECOND 30
:FULLY-SPECIFIED
:DEGREES
372
root  -45.7041 38.1813 -4.06556 41.8701 88.5082 32.6252
RightUpLeg  -44.8883 -14.3353 4.20746
RightLeg  33.22 -7.5731 -5.61015
RightFoot  -3.7236 -0.408839 5.67878
RightToes  -1.33073e-015 0 -3.6325e-017
Spine  54.5764 -3.2536 6.8664
Spine1  8.48725 1.1869 -3.40328
HEad  -33.9801 -4.74506 1.31651
LeftShoulder1  9.46851 -21.7072 -31.4209
LeftArm  -16.3881 -48.3121 -25.8196
LeftForeArm  38.5416 -2.72814 -6.03131
LeftHand  -0.244104 0.0205437 5.32207
RightShoulder  5.62596 14.5721 24.9764
RightArm  -9.29731 46.9653 25.5162
RightForeArm  13.0694 6.02061 8.69273
RightHand  -1.98097 5.78196 -20.6729
LeftUpLeg  -39.4763 13.6513 -9.19677
LeftLeg  34.3525 4.98392 4.01689
LeftFoot  -4.3456 -0.346246 6.07005
LeftToes  -7.82198e-011 2.46994e-011 -7.94165e-012
373
root  -45.1242 37.9093 -3.80888 103.932 88.2082 92.1138
RightUpLeg  -47.6533 -17.2184 6.7061
RightLeg  25.9833 -6.18698 -3.49782
RightFoot  -1.75012 -0.449072 5.3258
RightToes  -1.33073e-015 0 -3.6325e-017
Spine  56.6324 -3.40476 6.54496
Spine1  8.56725 0.83734 -2.90327
HEad  -38 -5.64289 1.96989
LeftShoulder1  9.5415 -22.3911 -30.6921
LeftArm  -18.6869 -54.2624 -23.3126
LeftForeArm  39.0783 -1.53315 -6.0562
LeftHand  -0.244104 0.0205437 5.32207
RightShoulder  5.43013 14.8734 23.317
RightArm  -12.967 51.0138 22.1844
RightForeArm  14.0413 2.85642 8.18209
RightHand  -1.98772 5.61744 -21.0316
LeftUpLeg  -42.4444 11.5971 -10.0137
LeftLeg  36.7701 5.07119 4.4275
LeftFoot  -6.02425 -0.19852 5.04779
LeftToes  -7.82198e-011 2.46994e-011 -7.94165e-012
374
root  -44.5251 37.5595 -3.52582 128.751 87.1691 114.731
RightUpLeg  -51.3147 -19.0718 9.2569
RightLeg  24.9353 -3.78075 -2.12054
RightFoot  2.12012 -0.0572042 0.717374
RightToes  -1.33073e-015 0 -3.6325e-017
Spine  58.8696 -3.73076 7.01738
Spine1  8.30468 0.748468 -3.02229
HEad  -41.4571 -6.78416 2.95099
LeftShoulder1  9.75912 -23.5121 -29.9358
LeftArm  -22.2189 -59.6422 -20.072
LeftForeArm  40.6192 -0.643022 -5.80647
LeftHand  -0.244104 0.0205437 5.32207
RightShoulder  5.10944 15.044 21.1904
RightArm  -18.229 54.377 18.2395
RightForeArm  15.2511 -0.501565 7.20818
RightHand  -2.12117 6.02624 -21.6309
LeftUpLeg  -45.3303 10.0858 -10.4
LeftLeg  39.7772 4.93743 4.77479
LeftFoot  -7.87503 -0.0845046 4.3921
LeftToes  -7.82198e-011 2.46994e-011 -7.94165e-012
375
root  -43.9151 37.0804 -3.25067 136.813 86.6343 120.689
RightUpLeg  -55.8339 -19.0925 10.8805
RightLeg  29.1047 -2.66652 -1.85806
RightFoot  4.58302 0.769789 -5.36672
RightToes  -1.33073e-015 0 -3.6325e-017
Spine  61.54 -4.21915 8.0055
Spine1  6.66281 1.12449 -4.21136
HEad  -43.7363 -8.12948 4.05685
LeftShoulder1  10.0023 -24.8209 -29.0808
LeftArm  -25.7382 -63.8467 -16.756
LeftForeArm  41.8088 -0.18587 -5.65646
LeftHand  -0.244104 0.0205437 5.32207
RightShoulder  4.79783 15.0954 19.3161
RightArm  -24.0302 56.7452 13.4329
RightForeArm  16.6918 -3.53117 6.08807
RightHand  -2.10058 5.98661 -21.4849
LeftUpLeg  -48.696 9.46895 -10.4953
LeftLeg  43.7477 4.55004 5.05221
LeftFoot  -9.93836 0.00750783 4.30176
LeftToes  -7.82198e-011 2.46994e-011 -7.94165e-012
376
root  -43.2728 36.4897 -2.9577 141.487 86.4315 123.142
RightUpLeg  -60.6704 -18.2746 11.8191
RightLeg  35.1192 -3.02147 -2.55772
RightFoot  3.63787 1.18423 -8.8064
RightToes  -1.33073e-015 0 -3.6325e-017
Spine  63.7856 -4.64757 8.72172
Spine1  5.2465 1.64132 -5.67909
HEad  -45.7074 -9.16264 5.07091
LeftShoulder1  9.82096 -25.7977 -27.2123
LeftArm  -29.7134 -67.32 -13.2073
LeftForeArm  42.3207 -0.468477 -5.48389
LeftHand  -0.244104 0.0205437 5.32207
RightShoulder  4.43406 15.2798 16.9574
RightArm  -30.8359 58.6856 7.33717
RightForeArm  17.82 -5.65516 4.90946
RightHand  -1.76921 4.81494 -20.2054
LeftUpLeg  -52.5771 9.51037 -10.5105
LeftLeg  48.439 3.93132 5.17281
LeftFoot  -12.3225 0.106632 3.93127
LeftToes  -7.82198e-011 2.46994e-011 -7.94165e-012
377
root  -42.6137 35.9155 -2.6348 149.655 86.427 129.622
RightUpLeg  -64.6413 -17.6715 12.9554
RightLeg  40.7348 -3.67299 -3.67472
RightFoot  0.681018 1.04898 -9.87652
RightToes  -1.33073e-015 0 -3.6325e-017
Spine  65.9788 -5.18169 9.03847
Spine1  5.24415 1.7139 -6.52044
HEad  -48.0613 -8.95408 5.79598
LeftShoulder1  8.43541 -25.4507 -22.6629
LeftArm  -35.6537 -70.4643 -9.02509
LeftForeArm  42.1049 -1.66844 -4.78468
LeftHand  -0.244104 0.0205437 5.32207
RightShoulder  3.61351 15.42 11.9762
RightArm  -39.0326 60.7149 1.68965
RightForeArm  17.6234 -6.56414 3.36692
RightHand  -1.58624 4.08753 -19.533
LeftUpLeg  -55.9081 9.9099 -10.022
LeftLeg  53.1322 3.16125 4.99807
LeftFoot  -14.5608 0.167369 2.85221
LeftToes  -7.82198e-011 2.46994e-011 -7.94165e-012
378
root  -41.9568 35.3644 -2.29007 161.169 86.4008 140.071
RightUpLeg  -67.5794 -17.3597 14.4161
RightLeg  45.7223 -3.90868 -4.60835
RightFoot  -2.28166 0.854378 -10.9482
RightToes  -1.33073e-015 0 -3.6325e-017
Spine  68.4695 -4.92282 8.62732
Spine1  5.9491 1.3329 -4.5463
HEad  -50.2389 -7.80766 4.92644
LeftShoulder1  6.9411 -23.2951 -19.2947
LeftArm  -44.6202 -73.6477 -1.60732
LeftForeArm  41.7099 -3.4552 -4.13618
LeftHand  -0.244104 0.0205437 5.32207
RightShoulder  2.06557 14.9712 3.12833
RightArm  -47.3362 62.3001 -1.81447
RightForeArm  15.7904 -6.09276 1.49952
RightHand  -1.92165 5.30246 -20.8946
LeftUpLeg  -58.5375 10.4384 -9.0753
LeftLeg  57.6993 2.36033 4.56474
LeftFoot  -16.3808 0.162678 1.45443
LeftToes  -7.82198e-011 2.46994e-011 -7.94165e-012
379
root  -41.3091 34.7541 -1.95356 172.924 86.2996 151.003
RightUpLeg  -70.1309 -17.133 15.951
RightLeg  50.6488 -3.86044 -5.41426
RightFoot  -5.0553 0.63477 -12.1062
RightToes  -1.33073e-015 0 -3.6325e-017
Spine  70.5086 -6.42558 8.55137
Spine1  6.97732 0.4848 -6.69576
HEad  -52.1197 -5.5109 5.99383
LeftShoulder1  4.36738 -18.803 -12.0226
LeftArm  -55.6012 -76.5784 6.4465
LeftForeArm  40.9929 -5.11047 -3.16283
LeftHand  -0.244104 0.0205437 5.32207
RightShoulder  0.974787 14.1773 -3.28175
RightArm  -57.0494 64.0004 -6.48361
RightForeArm  13.9644 -5.25937 -0.415552
RightHand  -2.50246 7.33755 -22.8712
LeftUpLeg  -60.9215 10.9159 -7.8931
LeftLeg  62.3449 1.67303 4.09951
LeftFoot  -18.2487 0.109204 0.00436442
LeftToes  -7.82198e-011 2.46994e-011 -7.94165e-012
380
root  -40.6682 34.0521 -1.64078 -176.745 86.2234 160.391
RightUpLeg  -72.8529 -16.6656 17.3099
RightLeg  55.7645 -3.8183 -6.46772
RightFoot  -8.21219 0.282848 -12.2299
RightToes  -1.33073e-015 0 -3.6325e-017
Spine  71.3864 -9.74376 9.28685
Spine1  8.34854 -0.0822529 -14.0256
HEad  -53.7513 -3.26618 9.73639
LeftShoulder1  1.54923 -13.434 -1.19559
LeftArm  -68.2474 -79.165 14.739
LeftForeArm  40.8491 -6.2051 -1.79361
LeftHand  -0.244104 0.0205437 5.32207
RightShoulder  0.738235 13.2393 -4.55467
RightArm  -67.9198 65.236 -14.5562
RightForeArm  13.3897 -3.93305 -1.77955
RightHand  -2.96143 8.85697 -24.1276
LeftUpLeg  -63.3639 11.2714 -6.60081
LeftLeg  67.0457 1.1487 3.74591
LeftFoot  -20.5452 -0.00797867 -1.61857
LeftToes  -7.82198e-011 2.46994e-011 -7.94165e-012
381
root  -40.0403 33.3032 -1.34574 -167.01 86.1488 169.245
RightUpLeg  -75.4224 -15.8274 18.3588
RightLeg  60.8199 -3.77315 -7.82692
RightFoot  -11.5339 -0.0972671 -11.5992
RightToes  -1.33073e-015 0 -3.6325e-017
Spine  72.5876 -9.69671 9.44624
Spine1  7.25668 0.211715 -14.2272
HEad  -53.6389 -3.3345 9.71122
LeftShoulder1  1.37094 -12.3417 -0.266154
LeftArm  -80.252 -79.5887 27.334
LeftForeArm  41.9932 -7.08498 -1.79298
LeftHand  -0.244104 0.0205437 5.32207
RightShoulder  0.454816 13.2762 -6.50225
RightArm  -71.5192 63.9603 -18.7854
RightForeArm  13.3559 -2.94796 -2.13524
RightHand  -3.74371 11.0165 -26.3059
LeftUpLeg  -65.6939 11.5153 -5.14564
LeftLeg  71.7302 0.73507 3.46866
LeftFoot  -22.7689 -0.201982 -3.38811
LeftToes  -7.82198e-011 2.46994e-011 -7.94165e-012
382
root  -39.4347 32.5419 -1.06222 -158.754 85.8884 177.093
RightUpLeg  -77.2844 -14.8824 19.0107
RightLeg  65.6634 -3.60855 -9.35379
RightFoot  -14.638 -0.417115 -11.0092
RightToes  -1.33073e-015 0 -3.6325e-017
Spine  73.5812 -8.89012 9.56442
Spine1  6.34826 0.665154 -12.507
HEad  -53.4184 -3.76865 8.72594
LeftShoulder1  1.39536 -12.0366 -0.501548
LeftArm  -91.323 -79.1329 39.1674
LeftForeArm  43.0264 -7.64771 -1.67954
LeftHand  -0.244104 0.0205437 5.32207
RightShoulder  0.131318 13.5603 -8.72585
RightArm  -72.944 62.4453 -20.3441
RightForeArm  12.7965 -2.21919 -2.51678
RightHand  -5.13933 14.32 -29.915
LeftUpLeg  -67.6592 11.625 -3.55422
LeftLeg  76.5147 0.387513 3.24724
LeftFoot  -24.2026 -0.434572 -5.15033
LeftToes  -7.82198e-011 2.46994e-011 -7.94165e-012
383
root  -38.8477 31.7583 -0.791674 -153.942 85.4866 -177.968
RightUpLeg  -78.4922 -14.0727 19.2894
RightLeg  70.4349 -3.24981 -10.9879
RightFoot  -17.7277 -0.69116 -10.2362
RightToes  -1.33073e-015 0 -3.6325e-017
Spine  74.8123 -5.90367 9.02592
Spine1  5.01105 1.28764 -5.30552
HEad  -52.82 -4.8896 4.84008
LeftShoulder1  2.30022 -13.1435 -6.19536
LeftArm  -100.033 -77.5798 51.3128
LeftForeArm  43.8253 -8.08196 -2.30239
LeftHand  -0.244104 0.0205437 5.32207
RightShoulder  -0.593472 13.4447 -13.6283
RightArm  -71.1095 61.3438 -17.8602
RightForeArm  12.9249 -1.69885 -2.69757
RightHand  -6.11319 16.3095 -32.1973
LeftUpLeg  -69.2231 11.6396 -1.97509
LeftLeg  81.4559 0.0923739 3.15233
LeftFoot  -24.9174 -0.689923 -7.04818
LeftToes  -7.82198e-011 2.46994e-011 -7.94165e-012
384
root  -38.2656 30.9399 -0.535274 -152.225 85.1187 -175.795
RightUpLeg  -79.4372 -13.3932 19.3343
RightLeg  75.2613 -2.63896 -12.6805
RightFoot  -20.953 -0.893805 -8.93593
RightToes  -1.33073e-015 0 -3.6325e-017
Spine  75.2313 -6.83486 9.15416
Spine1  5.44458 1.04277 -7.16226
HEad  -53.1789 -4.14551 5.99736
LeftShoulder1  1.43329 -10.4389 -1.64802
LeftArm  -108.854 -76.4045 59.3437
LeftForeArm  43.7447 -7.7474 -1.47777
LeftHand  -0.244104 0.0205437 5.32207
RightShoulder  -0.597881 12.9454 -13.7634
RightArm  -71.6014 62.1774 -17.7818
RightForeArm  13.8474 -2.32943 -2.89505
RightHand  -6.0979 16.211 -32.2883
LeftUpLeg  -70.4002 11.6835 -0.497759
LeftLeg  86.3835 -0.179893 3.08589
LeftFoot  -25.4861 -0.984675 -9.15169
LeftToes  -7.82198e-011 2.46994e-011 -7.94165e-012
